<?xml version="1.0" standalone="no"?>
<!DOCTYPE svg PUBLIC "-//W3C//DTD SVG 20010904//EN"
 "http://www.w3.org/TR/2001/REC-SVG-20010904/DTD/svg10.dtd">
<svg version="1.0" xmlns="http://www.w3.org/2000/svg"
 width="512.000000pt" height="512.000000pt" viewBox="0 0 512.000000 512.000000"
 preserveAspectRatio="xMidYMid meet">
<metadata>
Created by potrace 1.11, written by Peter Selinger 2001-2013
</metadata>
<g transform="translate(0.000000,512.000000) scale(0.100000,-0.100000)"
fill="#000000" stroke="none">
<path d="M2240 5095 c-441 -55 -813 -206 -1223 -496 -5 -4 2 -26 16 -50 127
-222 -21 -490 -279 -507 -78 -5 -126 7 -187 45 -45 29 -33 39 -130 -107 -259
-388 -399 -802 -427 -1270 -38 -630 157 -1246 554 -1750 80 -102 312 -331 416
-411 371 -288 773 -457 1245 -525 178 -26 513 -23 704 5 169 26 370 76 507
126 125 46 376 168 474 231 310 198 585 465 788 769 151 227 294 563 356 841
139 617 41 1280 -267 1821 -410 718 -1136 1196 -1949 1283 -131 14 -469 11
-598 -5z m349 -236 c32 -11 61 -52 61 -88 0 -11 -12 -33 -26 -50 -62 -74 -174
-7 -143 86 10 31 25 43 75 63 1 0 15 -5 33 -11z m1570 -650 c63 -22 77 -107
24 -149 -39 -31 -86 -26 -117 11 -49 58 -26 115 60 149 1 0 15 -5 33 -11z
m-1534 -55 c53 -57 16 -144 -60 -144 -48 0 -70 13 -85 49 -25 62 15 121 82
121 29 0 45 -7 63 -26z m131 -415 c421 -63 798 -381 937 -789 144 -424 43
-892 -263 -1214 -41 -44 -111 -106 -154 -138 -91 -68 -265 -157 -359 -184
l-65 -18 -5 -58 c-9 -97 -68 -187 -152 -230 -56 -29 -167 -36 -232 -14 -102
34 -176 131 -189 247 l-6 56 -62 17 c-33 10 -106 39 -161 65 -522 251 -789
831 -640 1390 55 206 158 385 310 536 274 274 646 393 1041 334z m-1219 -31
c31 -29 32 -92 1 -125 -29 -31 -92 -32 -125 -1 -31 29 -32 92 -1 125 29 31 92
32 125 1z m-698 -908 c52 -33 102 -97 122 -157 6 -19 9 -65 7 -101 -17 -296
-408 -373 -539 -107 -29 59 -31 71 -27 137 5 82 24 126 77 181 93 99 248 119
360 47z m3295 -164 c58 -24 69 -107 18 -146 -59 -47 -141 -6 -142 71 0 35 25
69 60 82 23 8 28 8 64 -7z m675 3 c63 -22 77 -107 24 -149 -70 -55 -166 19
-133 104 8 22 29 38 76 56 1 0 15 -5 33 -11z m-3274 -1104 c66 -65 -4 -178
-90 -145 -39 15 -54 38 -55 83 0 51 35 87 85 87 25 0 44 -8 60 -25z m2660
-485 c28 -28 27 -93 -3 -122 -28 -29 -91 -31 -121 -4 -43 39 -33 116 19 143
31 17 79 9 105 -17z m-1567 -656 c59 -67 -16 -167 -101 -135 -15 6 -34 26 -44
45 -14 29 -14 39 -3 66 26 62 103 75 148 24z"/>
</g>
</svg>
